<svg xmlns="http://www.w3.org/2000/svg" width="468" height="468" viewBox="0 0 468 468"><defs><style>.a{fill:#989898;}</style></defs><title>Artboard 1fed-seal-refined</title><path class="a" d="M201.79,124.78c-.63,1.45-5,11.94-5,11.94a5.37,5.37,0,0,1,3.07-.91c1.42.21,11.45,2.72,12.86,3.06s2.66.68,2.31,2.38-4.13,19.17-7.26,34.8l-.18,1.47c-.26,9.8,5.35,12.38,5.35,12.38a12.31,12.31,0,0,0,7.19-8.36c0,10.53,6.76,12.82,6.76,12.82s6.44-2.92,6.7-12.34c.21,10.11,6.74,12.34,6.74,12.34s6.56-3,6.7-12.61a11,11,0,0,0,7.23,8.15s5.43-3.08,5.35-12.39h0v-.11h0c-.07-.54-.18-1.63-.18-1.63-2.8-16.54-7-41.09-7.31-43a10.42,10.42,0,0,0-2.32-5.58,11.89,11.89,0,0,0-4.65-3.33c-6.16-2.65-16-4.35-20.23-4.63-2.58-.16-4.55.72-5.17,1.83a14.38,14.38,0,0,0-1,2.56L207,122.47C204.24,122.2,202.53,123.05,201.79,124.78Zm18.5,2.23s.54-1.17,1-2.28c-.09-.93,0-1.9,2.81-2,3.52-.19,15.29,2.67,17.92,3.93,3.75,1.79,5,3.51,5.46,6.09.54,3.3,6.29,39.72,6.29,39.72a26.42,26.42,0,0,1,.28,5.87,8.63,8.63,0,0,1-1.32,4.38,8.71,8.71,0,0,1-3.87-3.6,45.85,45.85,0,0,1-2.59-4.58,51.4,51.4,0,0,1-2,6.41c-1.74,4.45-4,5.77-4,5.77s-2.43-1.42-4.29-5.77c-1.43-3.33-2.44-6.25-2.44-6.25s-1,2.92-2.45,6.25c-1.87,4.35-4.3,5.77-4.3,5.77s-2.25-1.32-4-5.77a48.66,48.66,0,0,1-2.05-6.41,25.7,25.7,0,0,1-2.71,4.74,14.31,14.31,0,0,1-3.46,3.56,11.1,11.1,0,0,1-1.49-5,22.48,22.48,0,0,1,.36-5.21s5.93-31.82,6.35-34.27c.26-1.47,0-2.92-3.16-3.53s-9.13-1.72-11-2a2.57,2.57,0,0,0-2.2.85s.54-2,1-3.94c.58-2.38,1.46-3.3,3.64-3.21Z"/><polygon class="a" points="228.61 128.26 230.84 127.16 235.16 126.74 222.66 124.27 223.18 125.43 221.85 128.06 228.61 128.26"/><path class="a" d="M131.9,220.36c-3.43,4.68-2.27,10.24.46,14.64,4.46,7.77,17.42,13,31,13.1-15.6-2.17-23.21-8.07-25.62-11.39a17,17,0,0,1-3.06-6.13,27.71,27.71,0,0,0,3.72,2.86c3.92,2.47,12.89,6.25,25.2,6a64.29,64.29,0,0,1-9.86-2.25,32.11,32.11,0,0,1-4-1.41l-.43-.19a40.19,40.19,0,0,1-7.77-4.17C137,228.45,132.77,224,131.9,220.36Z"/><path class="a" d="M133.87,259.73c8.06,5.41,19,7.4,31.91,4.91-15.15.47-22.14-2.62-26.18-5.21-2.87-1.84-4.95-4.25-5.54-5.93a28.57,28.57,0,0,0,7.73,2.87,50.55,50.55,0,0,0,22.48-.2c-10.17.73-18.46-.94-24.93-4.2-.16-.08-.33-.14-.48-.22-2-1-7.92-4.15-10.35-8.09A14.59,14.59,0,0,0,133.87,259.73Z"/><path class="a" d="M152.27,204.9c2.18,5.27,8.52,9.22,16.06,11.68-7.81-4.12-10.82-7.52-12-9.74a13.32,13.32,0,0,1-1.49-5.27,18.46,18.46,0,0,0,2.75,3c3.08,2.55,8.16,4.54,15.25,5.32-1.62-.46-3.12-1.08-4.56-1.63-6.75-2.62-9.95-5.24-11.68-9.33a11.83,11.83,0,0,1-.91-5.39C151.31,195.44,150.46,200.54,152.27,204.9Z"/><path class="a" d="M165.56,224l-.27-.09.14.06Z"/><path class="a" d="M139.49,215.14c3.38,9.11,14.66,14.88,24.38,16.75-11.35-3.82-16-8.2-18.43-11.79-1.6-2.31-2.78-6-2.71-7.1a16.13,16.13,0,0,0,3.29,3.38c3.23,2.44,9.87,6,19.32,7.55a44.14,44.14,0,0,1-12.84-6.07c-4.5-3-7.64-6.34-9.06-10a10.69,10.69,0,0,1-.52-4.15C139.11,205.78,137.85,210.72,139.49,215.14Z"/><path class="a" d="M142.34,283c9.48,3.68,19.45,1.79,28.52-2.66-8.45,2.31-12.6,2.83-18,2.24-4.24-.45-8-2.34-9.45-4.46a38.54,38.54,0,0,0,9.66-.3,36.79,36.79,0,0,0,14.59-5.33l-.32.09.14,0c-10.59,4-22.69,4.48-32.26-1.94a10.7,10.7,0,0,1-1.35-1,.1.1,0,0,0,0,0C133.67,275.29,137.75,281.2,142.34,283Z"/><path class="a" d="M325.79,231.44a40.48,40.48,0,0,1-7.77,4.17l-.42.19a33.44,33.44,0,0,1-4,1.41,64.56,64.56,0,0,1-9.86,2.25c12.31.23,21.27-3.55,25.2-6a28.39,28.39,0,0,0,3.72-2.86,17.14,17.14,0,0,1-3.06,6.13c-2.41,3.32-10,9.22-25.63,11.39,13.6-.09,26.56-5.33,31-13.1,2.73-4.4,3.89-10,.47-14.64C334.58,224,330.36,228.45,325.79,231.44Z"/><path class="a" d="M333.47,259.73a14.61,14.61,0,0,0,5.37-16.07c-2.44,3.94-8.31,7.09-10.35,8.09L328,252c-6.46,3.26-14.76,4.93-24.93,4.2a50.59,50.59,0,0,0,22.49.2,28.71,28.71,0,0,0,7.73-2.87c-.6,1.68-2.68,4.09-5.54,5.93-4,2.59-11,5.68-26.18,5.21C314.48,267.13,325.41,265.14,333.47,259.73Z"/><path class="a" d="M299.06,208.27c-1.44.55-2.94,1.17-4.56,1.63,7.09-.78,12.17-2.77,15.25-5.32a18.33,18.33,0,0,0,2.74-3,13.16,13.16,0,0,1-1.49,5.27c-1.17,2.22-4.17,5.62-12,9.74,7.54-2.46,13.88-6.41,16.07-11.68,1.81-4.36,1-9.46-3.43-11.35a11.85,11.85,0,0,1-.92,5.39C309,203,305.81,205.65,299.06,208.27Z"/><path class="a" d="M301.79,224l.12,0,.15-.06Z"/><path class="a" d="M314.84,217.86A44,44,0,0,1,302,223.93c9.46-1.6,16.09-5.11,19.32-7.55a16.25,16.25,0,0,0,3.3-3.38c.07,1.13-1.12,4.79-2.72,7.1-2.47,3.59-7.08,8-18.42,11.79,9.72-1.87,21-7.64,24.37-16.75,1.64-4.42.38-9.36-3.43-11.43a10.68,10.68,0,0,1-.51,4.15C322.48,211.52,319.35,214.87,314.84,217.86Z"/><path class="a" d="M325,283c4.59-1.78,8.67-7.69,8.55-13.48a.09.09,0,0,0-.06,0,10,10,0,0,1-1.35,1c-9.56,6.42-21.66,6-32.25,1.94l.13,0-.31-.09a36.69,36.69,0,0,0,14.58,5.33,38.62,38.62,0,0,0,9.67.3c-1.48,2.12-5.21,4-9.45,4.46-5.43.59-9.57.07-18-2.24C305.56,284.77,315.53,286.66,325,283Z"/><path class="a" d="M395.57,232.7a161.94,161.94,0,0,0-133-159.32c-1.94-.24-4.14-.42-4.79,1-.46,1,.43,1.88,1.36,2.67h0c.67.53,1.54,1.11,2.72,1.92,5.33,3.67,14.73,10.57,19.22,21.12,4.23,9.92,5.44,23.4-4.27,41.26-8.14,15-16,25.17-14.14,37.21,2.4,15.54,20.92,18.33,30.62,18.49H174.06c9.69-.16,28.22-3,30.62-18.49,1.87-12-6-22.24-14.15-37.21-9.71-17.86-8.49-31.34-4.27-41.26,4.49-10.55,13.9-17.45,19.22-21.12,1.18-.81,2.06-1.39,2.73-1.92h0c.93-.79,1.82-1.68,1.36-2.67-.65-1.41-2.86-1.23-4.79-1a161.93,161.93,0,0,0-101,256h0a40.81,40.81,0,0,0,9.53,8.94,1.83,1.83,0,0,1,.16.13l.2.12.69.44c15.25,10,37.91,7.7,55.86-16.76-17.16,16.35-30.7,18.13-41.6,16.46-4.82-.73-13.9-5.29-17.38-11.95,14.73,2.51,31.95-3.59,46.66-14.31-.23.14-.45.25-.68.38.26-.14.5-.27.74-.42-19.63,9.73-34.79,12.09-45.09,8.66-6.41-2.14-13.68-8.86-15.78-16.23,14.07,5.39,32.16,2.37,48.56-5.57l-.81.28c.4-.15.78-.26,1.19-.42-19.81,5.67-36.59,6.15-45.91,1.24-6-3.14-11.92-10.54-12.8-18.16,12.87,7.51,31.28,7.21,49,2.14l-.26,0c-19.92,2.36-36.75.65-45.16-5.92-5.57-4.36-9.93-12.92-9.54-20.59,11.25,9.62,29.23,12.07,47.52,9.72l.65,0c-20.56-.81-36.15-5-43.92-13.16a25.53,25.53,0,0,1-6.32-22.38c9.66,11.64,27.4,16.5,46.21,16.81h.08c-20.42-4.17-35.1-10.82-41.37-20.53-4.54-7-5.66-15.13-2.64-22.19,7.89,12.11,25.49,21.43,43.59,25.13l-.74-.23.78.23c-20.22-7.7-34-17.83-38.7-28.66-3.32-7.7-2.71-15,1.45-21.07,5.67,13.74,22.38,26.42,39.9,32.88l.15.08C109.05,203.73,96.32,191,93.42,179.46c-2-8.14-.46-15.54,4.66-20.72,3.27,14.57,19,30.24,35.91,39.68l-.71-.47.59.38c-18-13.88-28.62-27.89-29.77-40.23-.78-8.36,1.06-15,7-19.37,1.44,16,15.33,34,31.18,45.26l-.47-.41.41.35c-14.44-14.22-24.6-30.42-24.75-44.57-.09-8.39,2.81-14.57,9.29-18.08-.6,17.18,11.49,36.67,26.17,50-.14-.14-.27-.3-.41-.46-12.85-15.42-21.23-32.34-20-46.32.72-8.35,4.2-14.23,11-17.11-2.14,20,7.62,39.39,20.31,53.31-1.3-1.67-2.51-3.34-3.68-5,1.15,1.65,2.32,3.29,3.61,4.92-11-17.33-17.78-35.76-14.45-49.72,1.95-8.17,6.61-13.6,13.73-15.5-4.08,10.31-4,23.84,2.26,37.89,4.75,10.91,13,20.56,19.21,30-2,4.6-1.48,11.78,1.47,18.65-.52.14-1,.3-1.6.5-7.37,2.77-11.62,8.8-11.6,13.29a6.45,6.45,0,0,0,.16,1.43h0v82.6c0,.12,0,.23,0,.34a51.17,51.17,0,0,0,2.15,14.06,63.47,63.47,0,0,0,7.2,15.73V234.21l9.34,2.19v85.65a115,115,0,0,0,9.36,9.26V238.6l9.34,2.19v98.14c3.29,2.47,6.47,4.65,9.35,6.52V243l9.35,2.19v105.9c2.89,1.62,4.64,2.46,4.64,2.46h.07s1.75-.84,4.64-2.46h0V245.23l9.34-2.2V345.45c2.89-1.88,6.06-4.05,9.35-6.52v-98.1l9.35-2.2v92.66a116.2,116.2,0,0,0,9.35-9.24V236.42l9.35-2.2v75.56a63.18,63.18,0,0,0,7.18-15.7,20.55,20.55,0,0,0,8.78,6.74c6.52,2.75,13.32,0,17.11-5.33a5,5,0,0,0,.27-.52,12.43,12.43,0,0,1-1.75.24,25.23,25.23,0,0,1-19.94-6.78,23.16,23.16,0,0,0,11.11,9.41,14.4,14.4,0,0,1-8.66,0,22.16,22.16,0,0,1-6.92-3.72A50.37,50.37,0,0,0,294.44,280V197.07h0a7,7,0,0,0,.16-1.42c0-4.49-4.23-10.52-11.6-13.29-.55-.2-1.08-.36-1.6-.5,2.94-6.87,3.47-14,1.47-18.65,6.24-9.4,14.45-19,19.2-30,6.29-14.05,6.35-27.58,2.26-37.89,7.12,1.9,11.79,7.33,13.73,15.5,3.34,14-3.4,32.39-14.44,49.72,1.28-1.63,2.46-3.27,3.61-4.91-1.17,1.68-2.39,3.35-3.69,5,12.69-13.92,22.46-33.34,20.31-53.31,6.79,2.88,10.27,8.76,11,17.11,1.19,14-7.2,30.9-20,46.32a6.1,6.1,0,0,1-.41.46c14.69-13.31,26.78-32.8,26.17-50,6.48,3.51,9.38,9.69,9.3,18.08-.15,14.15-10.31,30.35-24.76,44.57l.3-.25c-.12.1-.23.21-.36.31,15.85-11.3,29.74-29.31,31.18-45.26,6,4.32,7.81,11,7,19.37-1.15,12.34-11.76,26.35-29.77,40.23l.37-.24-.49.33c16.92-9.44,32.64-25.11,35.9-39.68,5.12,5.18,6.7,12.58,4.67,20.72C371,191,358.3,203.73,339.35,214.52l.16-.08c17.51-6.46,34.23-19.14,39.9-32.88,4.15,6.07,4.76,13.37,1.44,21.07-4.67,10.83-18.48,21-38.69,28.66.28-.07.55-.16.83-.25-.27.08-.52.18-.79.25,18.1-3.7,35.7-13,43.58-25.13,3,7.06,1.91,15.14-2.64,22.19-6.27,9.71-20.94,16.36-41.36,20.53h.08c18.81-.31,36.54-5.17,46.2-16.81a25.5,25.5,0,0,1-6.32,22.38c-7.76,8.17-23.36,12.35-43.91,13.16l.65,0c18.29,2.35,36.26-.1,47.52-9.72.39,7.67-4,16.23-9.55,20.59-8.41,6.57-25.25,8.28-45.17,5.92l-.24,0c17.66,5.07,36.08,5.37,48.95-2.14-.89,7.62-6.83,15-12.8,18.16-9.32,4.91-26.11,4.43-45.91-1.24.36.14.7.24,1.06.38l-.68-.24c16.4,7.94,34.49,11,48.55,5.57-2.1,7.37-9.36,14.09-15.77,16.23-10.3,3.43-25.45,1.07-45.1-8.66.31.19.61.34.93.53-.29-.17-.57-.31-.86-.49,14.71,10.72,31.93,16.82,46.65,14.31-3.47,6.66-12.56,11.22-17.38,11.95-10.9,1.67-24.43-.11-41.59-16.46,18,24.47,40.62,26.8,55.88,16.74.22-.13.44-.26.65-.41l.22-.13.17-.14a41,41,0,0,0,9.51-8.93h0A161.21,161.21,0,0,0,395.57,232.7ZM172.91,197.05c.17-4.05,5.18-9.15,10.75-11.48a20.11,20.11,0,0,1,7.34-1.44c-.13-.24-.23-.49-.35-.73-4.37-8.33-4.8-18.68-.82-23.26a7.12,7.12,0,0,1,4.08-2.12c-2.84-.78-6.36.69-8.24,3.11a9.9,9.9,0,0,0-1.15,2c-1.35-2.49-3-5.09-4.92-8l.06.08c-12.43-21.12-20.19-39.49-11-58.23,3-6.05,10-11.72,17.2-14.34A22.44,22.44,0,0,1,192.16,81s-6.06,3.91-11.32,15.28c-4,8.73-7.3,25.14,4.63,45.89,8.74,15.21,14.56,25.25,12.49,36-3,15.53-22.2,18.54-24.79,18.89Zm17.3,28.32.77,4.49-4-2.12-4,2.12.78-4.49-3.27-3.19,4.51-.65,2-4.09,2,4.09,4.52.65Zm0-16.68.77,4.5-4-2.13-4,2.13.78-4.5-3.27-3.19,4.51-.65,2-4.09,2,4.09,4.52.65Zm18.7,16.68.77,4.49-4-2.12-4,2.12.77-4.49-3.27-3.19,4.52-.65,2-4.09,2,4.09,4.51.65Zm0-16.68.77,4.5-4-2.13-4,2.13.77-4.5-3.27-3.19,4.52-.65,2-4.09,2,4.09,4.51.65Zm18.72,16.68.77,4.49-4-2.12-4,2.12.76-4.49-3.27-3.19,4.52-.65,2-4.09,2,4.09,4.52.65Zm0-16.68.77,4.5-4-2.13-4,2.13.76-4.5-3.27-3.19,4.52-.65,2-4.09,2,4.09,4.52.65Zm18.66,16.68.77,4.49-4-2.12-4,2.12.77-4.49-3.26-3.19,4.51-.65,2-4.09,2,4.09,4.52.65Zm0-16.68.77,4.5-4-2.13-4,2.13.77-4.5-3.26-3.19,4.51-.65,2-4.09,2,4.09,4.52.65ZM265,225.37l.77,4.49-4-2.12-4,2.12.77-4.49-3.27-3.19,4.52-.65,2-4.09,2,4.09,4.52.65Zm0-16.68.77,4.5-4-2.13-4,2.13.77-4.5-3.27-3.19,4.52-.65,2-4.09,2,4.09,4.52.65Zm18.69,16.68.78,4.49-4-2.12-4,2.12.78-4.49-3.28-3.19,4.51-.65,2-4.09,2,4.09,4.52.65Zm0-16.68.78,4.5-4-2.13-4,2.13.78-4.5-3.28-3.19,4.51-.65,2-4.09,2,4.09,4.52.65Zm4-53.53,0,0c-1.91,2.9-3.54,5.48-4.89,8a9.63,9.63,0,0,0-1.15-2c-1.88-2.42-5.39-3.89-8.24-3.11a7.09,7.09,0,0,1,4.08,2.12c3.95,4.54,3.55,14.73-.7,23-.16.32-.3.66-.47,1a20.16,20.16,0,0,1,7.35,1.44c5.56,2.33,10.57,7.43,10.74,11.48h-.26c-2.59-.35-21.79-3.36-24.79-18.89-2.06-10.74,3.76-20.78,12.5-36,11.93-20.75,8.66-37.16,4.62-45.89C281.24,84.91,275.18,81,275.18,81a22.53,22.53,0,0,1,6.3,1.59c7.24,2.62,14.23,8.29,17.2,14.34C307.88,115.67,300.11,134,287.69,155.16Z"/><path class="a" d="M159.48,297.84a23.12,23.12,0,0,0,11.12-9.41,25.24,25.24,0,0,1-19.94,6.78,12.43,12.43,0,0,1-1.75-.24,3.6,3.6,0,0,0,.26.52c3.79,5.36,10.6,8.08,17.11,5.33a20.45,20.45,0,0,0,8.78-6.75,22.39,22.39,0,0,1-6.91,3.72A14.44,14.44,0,0,1,159.48,297.84Z"/><path class="a" d="M206.59,375.63a44.74,44.74,0,0,0-6.77-10.7c-11.5-13.49-25.7-15.54-25.7-15.54s2.45,10.31,8.48,17.19a61.51,61.51,0,0,1,11,2.92C201.09,372.28,203.44,373.7,206.59,375.63Z"/><path class="a" d="M274.28,357c-3.39-1-6.83,5.83-8.51,10.8a4.34,4.34,0,0,1,2.42,1.2s3.91-5.92,10.93-4.78a8.67,8.67,0,0,1,5.21,2.65c7.23-9.93,8.94-17.8,8.94-17.8s-3.23-1-5.65,2.74c-1.32,2.07-2.59,7.85-2.59,7.85s1.55-7.17-1.75-7.79c-4.66-.86-7.17,10.91-7.17,10.91S277,357.75,274.28,357Z"/><path class="a" d="M301.91,370.51c-4,1.36-9.58,7.64-9.58,7.64s6.92-10.43.83-11.4c-6.42-1-14.43,12.26-14.43,12.26s5.33-9.51-.44-10.65-11.52,8.29-13.62,12.2c1.23-2.63,3-7.6-.75-8.73-6.16-1.88-9,10.29-18,15.44a24,24,0,0,1-11.49,2.94,28.28,28.28,0,0,0,16.45-13c.51-1,1.24-2.64.68-3.42-.41-.58-.82-.65-2-.73a7,7,0,0,0,2.28-.68c2.57-1,4.52-3.45,4-5-.35-1-1.45-1.35-2.91-1.25a9.41,9.41,0,0,0,2.19-1c2.31-1.35,3.63-3.23,2.67-4.87-.32-.56-1.51-1-3-.78a7.91,7.91,0,0,0,2.32-2.8c1.17-2.08,1.37-4.14-1-5.11s-3.82.73-4.59,2.68a8.86,8.86,0,0,0-.52,3.66,2.75,2.75,0,0,0-2.71-1.43c-1.63.43-2.05,2.34-1.83,4.32a14.62,14.62,0,0,0,.69,3.06c-.73-.73-1.87-1.51-3-1.1-2.1.75-1.47,4-1.09,5.62a10.12,10.12,0,0,0,.87,2.36l0,0a1.81,1.81,0,0,0-1.62-.81c-.9.08-1.56.95-1.88,2-.72,3.09-.73,6.3-1.33,8.26-1.91,6.28-4.55,9.3-5.23,10h-.31c-.69-.67-3.37-3.6-5.39-10.09-.65-2.1-1.46-6.71-2.37-9.86a29.5,29.5,0,0,0-16.86-19s-2.29,13.93,6.63,26.1c7.13,9.72,15.15,12.28,17.48,12.84a43.34,43.34,0,0,1-13.08-2.49c-8.71-3-11.37-7.47-27-13.68-19.61-7.76-39.3-2.91-41.93-2.2a162,162,0,0,0,163,1.44C312.54,371.85,309.08,368.08,301.91,370.51Z"/><path class="a" d="M169.11,365.16c-.45-.29-.89-.58-1.36-.87-17.87-11.22-38.12-10.06-40.83-9.85a153.28,153.28,0,0,0,18.89,14.25A71.85,71.85,0,0,1,169.11,365.16Z"/><path class="a" d="M332.23,354.24c-2.5,1.42-6.79,7.06-7.34,7.9.61-.94,5-7.87,1.45-10-5.15-3.17-15.29,11.4-15.29,11.4s4.93-7.12,1.79-9.46c-3.9-2.9-13.19,6.21-15.82,9.6a4.06,4.06,0,0,1,2.87,3.29,14.92,14.92,0,0,1,12.38-.41,12.79,12.79,0,0,1,5.58,4.53,162.17,162.17,0,0,0,22.56-16.6C339.67,353.75,337.13,351.47,332.23,354.24Z"/><path class="a" d="M233.7,51.54C133,51.54,51.32,133.2,51.32,233.92S133,416.29,233.7,416.29a182.38,182.38,0,1,0,0-364.75Zm0,360.89A178.51,178.51,0,1,1,412.21,233.92,178.51,178.51,0,0,1,233.7,412.43Z"/><path class="a" d="M233.67,2.23C105.72,2.24,2,106,2,233.9S105.72,465.57,233.67,465.57,465.34,361.85,465.34,233.9,361.62,2.24,233.67,2.23ZM394.55,394.78A227.53,227.53,0,1,1,461.18,233.9,226.82,226.82,0,0,1,394.55,394.78Z"/><path class="a" d="M50.24,293.78c1,3.15.35,3.89-3.29,5.1L40.69,301l-.45-1.35c-1-2.53-1.77-5.42,2.44-6.79l-.32-.95L33,295l.31.92c3.61-.95,4.87,1,5.9,4l.45,1.35L34,303.2c-3.21,1.07-4.46,1.34-5.46-1.64-1.71-5.11-.91-6.77,2-10.95l-.79-.61-4.95,4.05,5.78,17.32,1.08-.37c-.87-2.62-.14-3.37,3.46-4.58L48,302.13c3.64-1.21,4.64-1,5.52,1.58l1.08-.36-3.32-9.93Z"/><path class="a" d="M28,282.39l13.28-2.67c3.77-.75,4.74-.45,5.28,2.22l1.12-.22L44,263.55l-6.94-1.21-.17.88c5,2.53,6.53,3.24,7.64,8.76.62,3.08,0,3.59-2.73,4.14L34,277.69l-.28-1.39c-.7-2.64-1.08-5.59,3.26-6.43l-.2-1L27,270.84l.19,1c3.71-.5,4.72,1.55,5.36,4.74l.28,1.39-6.34,1.27c-3.32.66-3.91.57-4.6-2.89-1-5,0-6.34,3.36-10.12l-.67-.74L19.29,269l3.55,17.72,1.12-.22C23.42,283.79,24.24,283.13,28,282.39Z"/><path class="a" d="M23.29,254.67l13.53-.75c3.83-.22,4.75.22,4.91,3l1.14-.07-.53-9.45c-.45-8.08-5.36-13.52-13.78-13-3.9.22-7.38,1.8-9.51,5.17s-2.14,6.39-2,9.29l.53,9.45,1.14-.06C18.59,255.42,19.49,254.88,23.29,254.67Zm5.63-16.38c6.18-.34,11.86,1.63,12.25,8.6.16,2.83-.81,3.44-4.51,3.61l-13.91.77c-3.62.24-4.4-.13-4.57-3.1C17.79,241.13,22.64,238.64,28.92,238.29Z"/><path class="a" d="M22.54,225.38l13.51,1c3.83.29,4.69.84,4.48,3.56l1.14.09,1.4-18.48-6.35-3.05-.41.8c4.08,3.78,5.42,4.89,5,10.5-.24,3.14-.95,3.47-3.75,3.26l-8-.61.11-1.41c0-2.74.46-5.69,4.87-5.32l.08-1-9.9-.75-.07,1c3.71.52,4.12,2.77,3.88,6l-.11,1.42L22,221.91c-3.38-.26-3.91-.51-3.64-4,.38-5.07,1.71-6.12,6-8.85l-.45-.9-6.08,2-1.37,18,1.14.09C17.78,225.5,18.74,225.09,22.54,225.38Z"/><path class="a" d="M25.64,197.7l13.2,2.76c3.76.79,4.54,1.44,4,4.12l1.12.23,2-9.64-1.12-.24c-.55,2.68-1.53,3-5.29,2.18l-6.33-1.32.51-2.4L47.25,189l1.17-5.62-1.12-.23c-.47,2.76-1.65,2.83-4.08,3.63l-9,2.84c.27-3.33-1.41-6.93-4.86-7.66-4.84-1-7.26,3.78-8.08,7.74l-2.08,9.95,1.11.24C21,196.55,22.9,197.13,25.64,197.7Zm-3.39-7.24c.64-3.05,3-5.66,6.33-5,3.9.81,4.84,4.93,3.88,8.3l-.36,1.76-6.77-1.42C22.79,193.61,21.65,193.3,22.25,190.46Z"/><path class="a" d="M47.88,181.06l1.07.38,3-8.33-1.07-.38c-.48,1.33-1.33,3-3,2.38a24.83,24.83,0,0,1-4-2.89l-1.08-.87,3-8.3,4.48.11a8.65,8.65,0,0,1,2.28.19c1.69.61.63,2.54.33,3.68l1.08.39,3.43-9.57-1.07-.38a3.36,3.36,0,0,1-1.71,1.77c-1.26.54-4.26.42-5.68.39l-19.83-.43-.28,3.35,15.64,12.3C46.46,176.4,48.85,178.25,47.88,181.06Zm-16-18.37,12.24.28-2.63,7.32Z"/><path class="a" d="M42.77,144l12.09,6.12c3.42,1.74,4,2.54,2.74,5.07l1,.52,8.1-16-4.6-5-.79.64c2.42,3.79,3.07,6.41,1,10.54-1.55,3.05-2.57,2.85-5.28,1.47l-12.71-6.44c-3.39-1.71-4-2.54-2.72-5.1l-1-.51L36,144.24l1,.52C38.34,142.23,39.37,142.25,42.77,144Z"/><path class="a" d="M69.12,102l10.24,8.78c2.91,2.49,3.28,3.45,1.5,5.52l.86.74,6.42-7.48-.87-.74c-1.78,2.07-2.77,1.86-5.69-.64L76.67,104l1.6-1.86,14,2.65L96,100.42l-.87-.74c-1.74,2.19-2.81,1.69-5.32,1.22L80.51,99c1.85-2.79,2.1-6.76-.57-9.05-3.75-3.22-8.18-.18-10.81,2.89l-6.62,7.71.87.74C65.58,98.76,67,100.2,69.12,102Zm.51-8c2-2.36,5.35-3.53,8-1.3,3,2.59,1.86,6.65-.6,9.14l-1.17,1.37-5.25-4.5C68.59,97.06,67.74,96.24,69.63,94Z"/><path class="a" d="M87.55,81.8l9,10.1c2.56,2.86,2.79,3.86.76,5.68l.76.85,13.81-12.36-2.47-6.6-.85.3c.33,5.55.52,7.27-3.68,11-2.34,2.1-3.09,1.84-5-.25l-5.33-6,1.06-.95c1.92-2,4.27-3.77,7.2-.45l.75-.67L97,75.13l-.72.65c2.31,2.94,1,4.86-1.37,7l-1.06,1-4.31-4.82c-2.26-2.53-2.47-3.08.16-5.43,3.78-3.38,5.46-3.22,10.43-2.23l.3-1-5.75-2.8L81.24,79.57l.76.85C84,78.6,85,79,87.55,81.8Z"/><path class="a" d="M126.25,69c1.64,2.36.64,5.23-1.54,6.75-3,2-7.39,1.12-10.71,0l-.58,1,5.91,4.1a3.3,3.3,0,0,1,1.17-2c1.13-.78,3.24-1,5-2.26,3.52-2.44,4.69-6.83,2.17-10.46-3.13-4.52-7.47-3-11.82-1.57-2.4.78-5.7,1.59-7.41-.88a4.52,4.52,0,0,1,1.15-6.39c2.85-2,6.74-1,9.69.31l.54-1-5.34-3.7a2.23,2.23,0,0,1-1,1.51,5.44,5.44,0,0,1-1.77.72,6.8,6.8,0,0,0-2.6,1.09c-3.53,2.44-4.49,6.39-2,10C112.39,73.82,121.68,62.42,126.25,69Z"/><path class="a" d="M128.57,51.2l6.32,12c1.79,3.39,1.78,4.41-.63,5.68l.53,1,16.39-8.64-.8-7-.9.08c-1,5.47-1.25,7.19-6.23,9.81-2.78,1.47-3.44,1-4.75-1.44l-3.72-7.06L136,55c2.34-1.43,5.06-2.63,7.09,1.3l.89-.47L139.39,47l-.86.46c1.53,3.41-.16,5-3,6.48l-1.25.66-3-5.72c-1.58-3-1.65-3.58,1.46-5.23,4.5-2.37,6.09-1.8,10.67.36l.52-.86-4.9-4.1L123,47.5l.53,1C125.94,47.24,126.8,47.84,128.57,51.2Z"/><path class="a" d="M153.64,39.11l4.69,12.65c1.34,3.59,1.19,4.61-1.37,5.55l.4,1.07L166.6,55l-.4-1.07c-2.56,1-3.33.27-4.66-3.32l-2.25-6.07,2.3-.85,10.94,9.1,5.38-2-.4-1.07c-2.59,1.07-3.27.11-5.24-1.52L165.05,42c3-1.55,5.12-4.89,3.89-8.2-1.72-4.63-7.06-4.13-10.85-2.72l-9.53,3.54.39,1.07C152.13,34.55,152.67,36.49,153.64,39.11ZM158,32.38c2.92-1.08,6.39-.48,7.58,2.72,1.38,3.73-1.6,6.72-5,7.71l-1.69.62L156.49,37C155.59,34.52,155.24,33.39,158,32.38Z"/><path class="a" d="M174.64,27.24c1,.37,1.52,1.3,2.34,2.67l11.7,18.32,1.11-.26,2.12-19.42c.11-1.45.35-4.35,1.24-5.52a4.11,4.11,0,0,1,2.36-1.27l-.26-1.11-8.38,2,.27,1.1c1.19-.07,2.81-.7,3.21.94a19.42,19.42,0,0,1-.11,4.62l-1.36,13.08-8-12.6a11.34,11.34,0,0,1-1.5-2.73c-.35-1.45,1.35-1.78,2.46-2l-.27-1.1-10.25,2.44.26,1.11A5.86,5.86,0,0,1,174.64,27.24Z"/><path class="a" d="M203.71,25.49,205.17,39c.41,3.81,0,4.76-2.69,5l.13,1.14,18.41-2,1.84-6.81-.86-.25c-3,4.7-3.81,6.22-9.41,6.83-3.13.33-3.58-.31-3.89-3.09l-.86-7.94,1.41-.16c2.7-.46,5.68-.58,6.12,3.83l1-.11-1.07-9.86-1,.1c.16,3.74-2,4.56-5.2,4.91l-1.41.15-.7-6.42c-.36-3.37-.22-3.94,3.29-4.32,5.05-.55,6.32.56,9.78,4.26l.8-.61-3-5.62-18,1.95.12,1.14C202.71,20.83,203.3,21.71,203.71,25.49Z"/><path class="a" d="M272.16,39.69c.66-4.48-4-6.95-7.79-7.61V32c3.7,0,7.57-.64,8.18-5,.85-6-6.88-6.91-11.12-7.53L254,18.36l-.17,1.13c2.7.4,3,1.39,2.46,5.15l-2,13.41c-.56,3.79-1.14,4.62-3.84,4.22l-.16,1.13L261.21,45C265.49,45.62,271.38,45,272.16,39.69ZM259.86,24c.35-2.36.93-3.47,3.6-3.07,3.11.45,6,2.24,5.47,5.8-.66,4.51-4.32,4.71-8.05,4.16l-2-.3Zm-2.32,15.83,1.19-8.11,1.88.28c4.24.62,8.35,2.14,7.6,7.27-.62,4.2-4.23,5-7.93,4.46C257.62,43.31,257.19,42.2,257.54,39.81Z"/><path class="a" d="M283,48.35c-1.36-.4-3.05-1.14-2.56-2.83a24.2,24.2,0,0,1,2.63-4.14l.8-1.13,8.47,2.45.18,4.47a8.75,8.75,0,0,1-.05,2.29c-.5,1.73-2.5.79-3.66.56l-.31,1.1,9.76,2.82.32-1.09a3.4,3.4,0,0,1-1.88-1.59c-.62-1.22-.69-4.23-.75-5.65l-.82-19.81-3.36-.07L280.53,42.11c-1.43,2.07-3.12,4.57-6,3.78L274.23,47l8.5,2.46Zm8.82-19.55L292.35,41l-7.47-2.16Z"/><path class="a" d="M309.21,57.43h0c-2.55-1.16-2.59-2.16-1-5.65L314.53,38l4.9,25.37,1.07.48,8.05-17.68c1.58-3.46,2.4-4.11,4.89-3l.47-1-7.3-3.32-.47,1c2.52,1.14,2.54,2.18,1,5.64l-5.37,11.8-4.37-22.69-5.48-2.49-.47,1c2.52,1.15,2.57,2.2,1,5.66l-5.62,12.34c-1.59,3.49-2.4,4.11-4.92,3l-.47,1,7.33,3.34Z"/><path class="a" d="M340.28,52.6,333,64c-2.07,3.23-2.93,3.74-5.32,2.22l-.61,1,8.36,5.34.61-1c-2.33-1.49-2.22-2.49-.15-5.72l2.23-3.49,4.48-1,.16,10.78a5.68,5.68,0,0,1-.2,2.5c-.61,1-2.06-.18-2.94-.74l-.61,1,9,5.73.61-1c-2.55-1.34-2.42-4.3-2.45-6.82L346,60.56l4.31-1c3-.72,6.77-1.79,9.6-.06l.62-1-8.1-5.18-.61,1c.84.54,2.3,1.47,1.55,2.64-.46.73-2.35,1-3.16,1.22l-11,2.47,4-6.23c2-3.21,2.93-3.75,5.26-2.26l.61-1-8.35-5.35-.62,1C342.45,48.37,342.33,49.4,340.28,52.6Z"/><path class="a" d="M389.21,102.69c4.81-4.52,6.92-12,2-17.23s-12.43-3.77-17.21.73S367.2,98,372.13,103.25,384.33,107.29,389.21,102.69ZM376.79,89c3.25-3,9.62-6.92,13.56-2.74s-.39,10.28-3.66,13.36S377,106.8,373,102.47C369.08,98.34,373.67,91.93,376.79,89Z"/><path class="a" d="M383.78,114l-.92.67,6.13,8.49.92-.67c-1.94-2.69-1.49-3.61,1.62-5.85l5.35-3.87.83,1.15c1.74,2.12,3.31,4.65-.3,7.21l.59.81,8-5.8-.56-.79c-3.17,2-4.94.54-6.84-2.09l-.83-1.16,4.76-3.43c2.75-2,3.87-2.62,5.71-.07,3.15,4.37,2.88,6.19,1.33,11.06l.93.35,3.52-5.35-10.68-14.8-.93.67c1.62,2.24,1.15,3.18-1.94,5.4l-11,7.93C386.41,116.1,385.4,116.23,383.78,114Z"/><path class="a" d="M406.61,154.34c1.95,4.2,6.26,6,10.75,6l.07-.83c-3.44-.35-6.8-1.5-8.36-4.85-2.49-5.36,2.55-10.52,7.06-12.62,4.2-2,10.5-3.09,12.92,2.11,1.37,3-.07,7.32-1.51,10.05l.74.61,4.7-4.74a5,5,0,0,1-1.65-1.83,6.64,6.64,0,0,1-.46-2.22,8,8,0,0,0-.71-2.84c-1.47-3.17-4.74-4.78-8-5.24a16.17,16.17,0,0,0-9.27,1.22C407,141.87,403.74,148.16,406.61,154.34Z"/><path class="a" d="M432.23,164.32l-13,3.87c-3.68,1.1-4.68.89-5.46-1.73l-1.09.33,2.81,9.44,1.1-.32c-.78-2.62-.06-3.34,3.62-4.44l6.06-1.8,3.07,10.3-6.06,1.81c-3.68,1.09-4.67.92-5.45-1.7l-1.09.32,2.82,9.48,1.09-.33c-.81-2.71-.07-3.4,3.6-4.5l13-3.86c3.64-1.09,4.67-.93,5.47,1.79l1.1-.33L441,173.18l-1.1.33c.78,2.61,0,3.31-3.63,4.4l-5.4,1.6-3.07-10.3,5.4-1.61c3.65-1.08,4.68-.89,5.46,1.73l1.09-.32L437,159.57l-1.09.32C436.64,162.51,435.88,163.24,432.23,164.32Z"/><path class="a" d="M440.13,194.33l-13.32,2.48c-3.77.71-4.74.4-5.25-2.32l-1.12.21,1.82,9.78,1.12-.2c-.51-2.76.28-3.4,4.06-4.1l13.32-2.48c3.74-.7,4.75-.4,5.26,2.36l1.12-.21-1.82-9.79-1.13.21C444.7,193,443.87,193.64,440.13,194.33Z"/><path class="a" d="M444,210.55a16.29,16.29,0,0,0-9.11-2.1c-6.45.5-11.73,5.25-11.21,12,.36,4.62,3.77,7.82,8,9.37l.36-.76c-3.1-1.53-5.85-3.78-6.13-7.46-.46-5.9,6.06-9,11-9.36,4.62-.36,10.91.79,11.36,6.51.25,3.24-2.63,6.83-4.93,8.88l.48.83,6.06-2.8a5.06,5.06,0,0,1-.91-2.28,6.83,6.83,0,0,1,.35-2.25,8.23,8.23,0,0,0,.33-2.91C449.37,214.78,446.87,212.13,444,210.55Z"/><path class="a" d="M424.14,247l-.54,10.15,1.14.06a3.36,3.36,0,0,1,1.12-2.19c1.05-.88,4-1.63,5.33-2l19.12-5.28-.69-3.29-18.51-7.29c-2.34-.92-5.16-2-5-5l-1.14-.06-.47,8.84,1.14.06c.07-1.42.41-3.24,2.17-3.14a23.82,23.82,0,0,1,4.62,1.63l1.29.52-.47,8.8-4.32,1.19a8.37,8.37,0,0,1-2.24.47c-1.8-.1-1.34-2.25-1.38-3.43Zm11.11-6.33,11.39,4.52-11.81,3.25Z"/><path class="a" d="M435.07,261.58c-6.69-1.28-13,1.59-14.35,8.72-.55,2.86.31,5.17-.13,7.48a4.86,4.86,0,0,1-.55,1.37l5,1c2.48.48,4.24.82,3.78,3.76l1.12.21,1.86-9.67-1.12-.22c-.53,2.79-1,3.71-4,3.14-3.5-.67-5.77-2.23-5-6.1,1.05-5.43,7.76-6.68,12.31-5.8s12.23,4.14,11.1,10c-.67,3.5-4,5.54-7,6.72l.25,1.07,6.82-1.05a5.41,5.41,0,0,1-.28-2.73c.23-1.23,1.12-2.57,1.49-4.47C447.69,268.05,441.28,262.77,435.07,261.58Z"/><path class="a" d="M429.94,289.29c-6.25-2.14-13.62-.46-15.95,6.35s2.13,12.67,8.48,14.84,13.81.53,16.15-6.31S436.15,291.42,429.94,289.29Zm7.6,14.52c-1.86,5.42-9.27,4.46-13.52,3s-10.87-5.18-8.95-10.8c1.84-5.37,9.66-4.3,13.71-2.91C433,294.54,439.4,298.38,437.54,303.81Z"/><path class="a" d="M61.89,339.57a5.91,5.91,0,1,0,8.16,1.78A6,6,0,0,0,61.89,339.57Z"/><path class="a" d="M89.74,375.84c-1.11-2.17-2.4-5.19-.3-7.2a4.37,4.37,0,0,1,6.27.12c2.31,2.41,2,6.27,1.18,9.27l1,.37,2.71-5.65A2.16,2.16,0,0,1,99,372a5.06,5.06,0,0,1-1-1.58,6.76,6.76,0,0,0-1.44-2.31c-2.87-3-6.78-3.3-9.81-.39-6.44,6.2,5.85,13.31.27,18.67a4.65,4.65,0,0,1-6.67-.44c-2.4-2.5-2.2-6.86-1.66-10.2l-1-.4-3,6.26a3.2,3.2,0,0,1,2.11.8c.92,1,1.47,2.93,2.93,4.45,2.86,3,7.22,3.42,10.3.46C93.88,383.66,91.72,379.77,89.74,375.84Z"/><path class="a" d="M115.29,393.26l1.9-5.86-13.33-11.25-.71.84c2,1.7,1.79,2.69-.58,5.49l-8.43,10c-2.39,2.83-3.31,3.19-5.32,1.49l-.71.84,13.66,11.53,6-3.25-.4-.77c-5.25,1.06-6.87,1.48-11-2-2.32-1.95-2.17-2.7-.42-4.76l5-5.89,1,.88c2.12,1.58,4.18,3.58,1.4,6.82l.74.62,6.18-7.31-.72-.6c-2.5,2.6-4.49,1.66-6.89-.37l-1-.88,4-4.76c2.11-2.5,2.6-2.78,5.2-.59,3.75,3.17,3.82,4.8,3.54,9.67Z"/><path class="a" d="M135.65,402.3a4,4,0,0,1,2.45.83l.61-.91-6.9-4.61-.61.91c.83.8,2.34,1.53,1.44,2.89a19,19,0,0,1-3.33,2.95L119.16,412l3.68-13.91a10.84,10.84,0,0,1,.94-2.85c.8-1.2,2.15-.22,3.06.4l.61-.92L119,389.05l-.61.92a5.68,5.68,0,0,1,2.15,2c.38.93.07,1.93-.35,3.41l-5.29,20.28.91.62L130.93,405C132,404.17,134.23,402.44,135.65,402.3Z"/><path class="a" d="M137,427.39c-2.7-1.38-2.72-2.14-1.49-4.55L139,416l1.22.63c2.42,1.05,4.88,2.54,2.9,6.32l.86.44,4.37-8.51-.83-.43c-1.85,3.1-4,2.63-6.8,1.2l-1.21-.63,2.85-5.54c1.49-2.91,1.91-3.29,4.93-1.74,4.37,2.24,4.8,3.81,5.62,8.62l1-.06.53-6.14-15.51-8-.5,1c2.34,1.2,2.34,2.22.67,5.48l-6,11.63c-1.7,3.29-2.51,3.85-4.85,2.65l-.5,1,15.9,8.17,5.09-4.51-.56-.66C143.29,429.1,141.81,429.88,137,427.39Z"/><path class="a" d="M178.84,420.89l.38-1-7.24-2.7-.39,1c2.5.93,2.59,1.93,1.31,5.36l-4.36,11.72-5.75-21.53-5.44-2-.38,1c2.5.93,2.62,1.94,1.34,5.38l-4.56,12.24c-1.29,3.47-2,4.12-4.53,3.19l-.39,1,7.28,2.71.39-1h0c-2.53-.94-2.64-1.9-1.34-5.37l5.11-13.72,6.43,24.07,1.07.4,6.54-17.56C175.62,420.65,176.37,420,178.84,420.89Z"/><path class="a" d="M200.41,431.28l-.82-6.54-18.71-4.52-3.78,5.43.79.57c2.06-2.42,5.36-4.3,8.67-3.5,2.2.54,1.3,2.41.91,4L184.2,440.3c-.87,3.6-1.49,4.34-4.44,3.63L179.5,445l10,2.41.26-1.07c-3-.72-3.2-1.66-2.33-5.26l3.27-13.55c.39-1.62.45-3.7,2.65-3.17,3.23.85,5.46,4,6.18,7.08Z"/><path class="a" d="M215.24,427.88c2.61.29,2.94,1.24,2.53,4.88l-.62,5.4L206.85,437l.61-5.4c.42-3.65,1-4.49,3.6-4.19l.13-1.09-9.45-1.08-.12,1.1c2.61.3,3,1.24,2.56,4.89l-1.47,13c-.42,3.67-1,4.48-3.6,4.18l-.13,1.1,9.45,1.07.12-1.09c-2.62-.3-3-1.22-2.56-4.89l.69-6.07,10.3,1.17-.69,6.07c-.42,3.68-.95,4.49-3.56,4.19l-.13,1.1,9.48,1.07.12-1.09c-2.71-.31-3-1.22-2.63-4.9l1.48-13c.41-3.64.94-4.49,3.66-4.18l.13-1.09-9.48-1.08Z"/><path class="a" d="M263.87,428.21c-3.37-1.87-6.27-1.7-9.06-1.39l-9.08,1,.13,1.09c2.65-.3,3.21.54,3.63,4.19l1.48,13c.42,3.68.05,4.59-2.6,4.89l.12,1.1,9.09-1c7.75-.88,12.72-5.91,11.79-14A11.07,11.07,0,0,0,263.87,428.21ZM258,449.93c-2.72.31-3.36-.59-3.73-4.14l-1.52-13.36c-.43-3.47-.11-4.25,2.74-4.57,6.76-.77,9.42,3.76,10.11,9.79S264.68,449.17,258,449.93Z"/><path class="a" d="M280,441.79,277.37,429c-.74-3.59-.47-4.56,2.18-5.11l-.23-1.08-9.4,1.94.22,1.08c2.61-.54,3.25.25,4,3.84l2.65,12.8c.74,3.63.46,4.57-2.15,5.11l.22,1.08,9.41-1.94-.23-1.08C281.39,446.17,280.76,445.42,280,441.79Z"/><path class="a" d="M292.51,429.53c-2.43,0-5.71-.28-6.52-3.06a4.37,4.37,0,0,1,3-5.5c3.2-.94,6.46,1.17,8.76,3.24l.8-.72-3.76-5a2.17,2.17,0,0,1-1.39,1.07,5.05,5.05,0,0,1-1.84.12,6.75,6.75,0,0,0-2.72.21c-4,1.16-6.05,4.48-4.87,8.51,2.51,8.58,14.49,1,16.66,8.39a4.64,4.64,0,0,1-3.47,5.71c-3.33,1-7.1-1.22-9.81-3.25l-.83.73,4.16,5.56a3.22,3.22,0,0,1,1.69-1.5c1.28-.37,3.28.05,5.29-.54,4-1.16,6.37-4.82,5.18-8.91C301.36,429.48,296.91,429.6,292.51,429.53Z"/><path class="a" d="M317.09,430.12l-5.3-12.9c-.63-1.54-1.8-3.26.3-4.12,3.11-1.2,6.74,0,9.16,2.12l.63-.66-4.5-4.82-17.81,7.31.13,6.62h1c.25-3.16,1.82-6.62,5-7.91,2.09-.86,2.47,1.18,3.1,2.73L314,431.37c1.41,3.43,1.34,4.39-1.47,5.55l.42,1,9.5-3.91-.42-1C319.22,434.18,318.49,433.54,317.09,430.12Z"/><path class="a" d="M344.11,418.19l-7.76-4.83c2.62-1.89,4.19-5.38,2.55-8.36-2.29-4.18-7.32-2.94-10.74-1.06l-8.59,4.73.53,1c2.87-1.57,3.65.2,4.95,2.57l6.27,11.39c1.79,3.24,1.8,4.23-.51,5.5l.53,1,8.33-4.58-.53-1c-2.31,1.27-3.14.73-4.92-2.51l-3-5.46,2.07-1.14L345,422.53l4.85-2.67-.53-1C347,420.29,346.22,419.47,344.11,418.19Zm-11.91-3.45-1.52.83-3.21-5.84c-1.21-2.19-1.7-3.22.76-4.57,2.63-1.44,6-1.37,7.61,1.52C337.69,410,335.26,413.32,332.2,414.74Z"/><path class="a" d="M354.25,409.87,347,399c-2-3.05-2.16-4.05.09-5.56l-.62-.91-8,5.35.61.91c2.22-1.48,3.1-1,5.15,2.05l7.29,10.86c2.06,3.07,2.15,4.05-.06,5.54l.61.91,8-5.35-.62-.92C357.18,413.4,356.31,412.94,354.25,409.87Z"/><path class="a" d="M374.36,392.77c.48,3.3.18,6.71-2.6,9-4.44,3.58-10.44.07-13.45-3.68-2.81-3.48-5.33-9.11-1-12.58,2.44-2,6.86-1.64,9.75-.92l.4-.84-5.53-3.3a4.79,4.79,0,0,1-1.33,2,6.45,6.45,0,0,1-2,.95,7.88,7.88,0,0,0-2.49,1.32c-2.63,2.12-3.37,5.55-3.05,8.71a15.63,15.63,0,0,0,3.3,8.4c3.91,4.86,10.57,6.47,15.68,2.35,3.48-2.8,4.18-7.26,3.11-11.45Z"/><path class="a" d="M387.08,382.13l-9.94-9.76c-1.19-1.17-2.95-2.29-1.36-3.91,2.39-2.33,6.2-2.65,9.26-1.66l.32-.85-6-2.66L365.84,377l2.72,6,.89-.39c-1-3-.94-6.81,1.45-9.23,1.59-1.62,2.73.11,3.92,1.28l9.95,9.77c2.64,2.59,3,3.51.83,5.68l.79.77,7.2-7.33-.79-.77C390.65,385,389.73,384.73,387.08,382.13Z"/><path class="a" d="M407.76,339.47a5.91,5.91,0,1,0,1.76,8.17A6,6,0,0,0,407.76,339.47Z"/></svg>